<?xml version="1.0" encoding="UTF-8" standalone="no"?>
<!-- Created with Inkscape (http://www.inkscape.org/) -->

<svg
   version="1.1"
   id="svg1"
   width="880"
   height="880"
   viewBox="0 0 880 880"
   sodipodi:docname="modern-house-2-publicdomainvectors.org.svg"
   inkscape:version="1.3.2 (091e20e, 2023-11-25, custom)"
   xmlns:inkscape="http://www.inkscape.org/namespaces/inkscape"
   xmlns:sodipodi="http://sodipodi.sourceforge.net/DTD/sodipodi-0.dtd"
   xmlns="http://www.w3.org/2000/svg"
   xmlns:svg="http://www.w3.org/2000/svg">
  <defs
     id="defs1">
    <clipPath
       clipPathUnits="userSpaceOnUse"
       id="clipPath3">
      <path
         d="M 0,660 H 660 V 0 H 0 Z"
         transform="translate(-553.66021,-276.31051)"
         id="path3" />
    </clipPath>
    <clipPath
       clipPathUnits="userSpaceOnUse"
       id="clipPath5">
      <path
         d="M 0,660 H 660 V 0 H 0 Z"
         transform="translate(-539.51951,-262.0156)"
         id="path5" />
    </clipPath>
    <clipPath
       clipPathUnits="userSpaceOnUse"
       id="clipPath7">
      <path
         d="M 0,660 H 660 V 0 H 0 Z"
         transform="translate(-70.207002,-292.32621)"
         id="path7" />
    </clipPath>
    <clipPath
       clipPathUnits="userSpaceOnUse"
       id="clipPath9">
      <path
         d="M 0,660 H 660 V 0 H 0 Z"
         transform="translate(-56.065402,-278.0293)"
         id="path9" />
    </clipPath>
    <clipPath
       clipPathUnits="userSpaceOnUse"
       id="clipPath11">
      <path
         d="M 0,660 H 660 V 0 H 0 Z"
         transform="translate(-329.10741,-123.666)"
         id="path11" />
    </clipPath>
    <clipPath
       clipPathUnits="userSpaceOnUse"
       id="clipPath13">
      <path
         d="M 0,660 H 660 V 0 H 0 Z"
         transform="translate(-193.2295,-471.49271)"
         id="path13" />
    </clipPath>
    <clipPath
       clipPathUnits="userSpaceOnUse"
       id="clipPath15">
      <path
         d="M 0,660 H 660 V 0 H 0 Z"
         transform="translate(-179.0869,-457.19681)"
         id="path15" />
    </clipPath>
    <clipPath
       clipPathUnits="userSpaceOnUse"
       id="clipPath17">
      <path
         d="M 0,660 H 660 V 0 H 0 Z"
         transform="translate(-121.6611,-483.50441)"
         id="path17" />
    </clipPath>
    <clipPath
       clipPathUnits="userSpaceOnUse"
       id="clipPath19">
      <path
         d="M 0,660 H 660 V 0 H 0 Z"
         transform="translate(-107.5195,-469.20851)"
         id="path19" />
    </clipPath>
    <clipPath
       clipPathUnits="userSpaceOnUse"
       id="clipPath21">
      <path
         d="M 0,660 H 660 V 0 H 0 Z"
         id="path21" />
    </clipPath>
    <clipPath
       clipPathUnits="userSpaceOnUse"
       id="clipPath23">
      <path
         d="M 0,660 H 660 V 0 H 0 Z"
         id="path23" />
    </clipPath>
    <clipPath
       clipPathUnits="userSpaceOnUse"
       id="clipPath25">
      <path
         d="M 0,660 H 660 V 0 H 0 Z"
         id="path25" />
    </clipPath>
    <clipPath
       clipPathUnits="userSpaceOnUse"
       id="clipPath27">
      <path
         d="M 0,660 H 660 V 0 H 0 Z"
         id="path27" />
    </clipPath>
    <clipPath
       clipPathUnits="userSpaceOnUse"
       id="clipPath29">
      <path
         d="M 0,660 H 660 V 0 H 0 Z"
         transform="translate(-97.7617,-201.01371)"
         id="path29" />
    </clipPath>
    <clipPath
       clipPathUnits="userSpaceOnUse"
       id="clipPath31">
      <path
         d="M 0,660 H 660 V 0 H 0 Z"
         id="path31" />
    </clipPath>
    <clipPath
       clipPathUnits="userSpaceOnUse"
       id="clipPath33">
      <path
         d="M 0,660 H 660 V 0 H 0 Z"
         id="path33" />
    </clipPath>
    <clipPath
       clipPathUnits="userSpaceOnUse"
       id="clipPath35">
      <path
         d="M 0,660 H 660 V 0 H 0 Z"
         transform="translate(-143.9248,-201.01371)"
         id="path35" />
    </clipPath>
    <clipPath
       clipPathUnits="userSpaceOnUse"
       id="clipPath37">
      <path
         d="M 0,660 H 660 V 0 H 0 Z"
         id="path37" />
    </clipPath>
    <clipPath
       clipPathUnits="userSpaceOnUse"
       id="clipPath39">
      <path
         d="M 0,660 H 660 V 0 H 0 Z"
         id="path39" />
    </clipPath>
    <clipPath
       clipPathUnits="userSpaceOnUse"
       id="clipPath41">
      <path
         d="M 0,660 H 660 V 0 H 0 Z"
         id="path41" />
    </clipPath>
    <clipPath
       clipPathUnits="userSpaceOnUse"
       id="clipPath43">
      <path
         d="M 0,660 H 660 V 0 H 0 Z"
         id="path43" />
    </clipPath>
    <clipPath
       clipPathUnits="userSpaceOnUse"
       id="clipPath45">
      <path
         d="M 0,660 H 660 V 0 H 0 Z"
         id="path45" />
    </clipPath>
    <clipPath
       clipPathUnits="userSpaceOnUse"
       id="clipPath47">
      <path
         d="M 0,660 H 660 V 0 H 0 Z"
         id="path47" />
    </clipPath>
    <clipPath
       clipPathUnits="userSpaceOnUse"
       id="clipPath49">
      <path
         d="M 0,660 H 660 V 0 H 0 Z"
         transform="translate(-236.7373,-206.5723)"
         id="path49" />
    </clipPath>
    <clipPath
       clipPathUnits="userSpaceOnUse"
       id="clipPath51">
      <path
         d="M 0,660 H 660 V 0 H 0 Z"
         id="path51" />
    </clipPath>
    <clipPath
       clipPathUnits="userSpaceOnUse"
       id="clipPath53">
      <path
         d="M 0,660 H 660 V 0 H 0 Z"
         id="path53" />
    </clipPath>
    <clipPath
       clipPathUnits="userSpaceOnUse"
       id="clipPath55">
      <path
         d="M 0,660 H 660 V 0 H 0 Z"
         transform="translate(-286.6816,-206.5723)"
         id="path55" />
    </clipPath>
    <clipPath
       clipPathUnits="userSpaceOnUse"
       id="clipPath57">
      <path
         d="M 0,660 H 660 V 0 H 0 Z"
         id="path57" />
    </clipPath>
    <clipPath
       clipPathUnits="userSpaceOnUse"
       id="clipPath59">
      <path
         d="M 0,660 H 660 V 0 H 0 Z"
         id="path59" />
    </clipPath>
    <clipPath
       clipPathUnits="userSpaceOnUse"
       id="clipPath61">
      <path
         d="M 0,660 H 660 V 0 H 0 Z"
         transform="translate(-336.62401,-206.5723)"
         id="path61" />
    </clipPath>
    <clipPath
       clipPathUnits="userSpaceOnUse"
       id="clipPath63">
      <path
         d="M 0,660 H 660 V 0 H 0 Z"
         id="path63" />
    </clipPath>
    <clipPath
       clipPathUnits="userSpaceOnUse"
       id="clipPath65">
      <path
         d="M 0,660 H 660 V 0 H 0 Z"
         id="path65" />
    </clipPath>
    <clipPath
       clipPathUnits="userSpaceOnUse"
       id="clipPath67">
      <path
         d="M 0,660 H 660 V 0 H 0 Z"
         id="path67" />
    </clipPath>
    <clipPath
       clipPathUnits="userSpaceOnUse"
       id="clipPath69">
      <path
         d="M 0,660 H 660 V 0 H 0 Z"
         id="path69" />
    </clipPath>
    <clipPath
       clipPathUnits="userSpaceOnUse"
       id="clipPath71">
      <path
         d="M 0,660 H 660 V 0 H 0 Z"
         id="path71" />
    </clipPath>
    <clipPath
       clipPathUnits="userSpaceOnUse"
       id="clipPath73">
      <path
         d="M 0,660 H 660 V 0 H 0 Z"
         id="path73" />
    </clipPath>
    <clipPath
       clipPathUnits="userSpaceOnUse"
       id="clipPath75">
      <path
         d="M 0,660 H 660 V 0 H 0 Z"
         id="path75" />
    </clipPath>
    <clipPath
       clipPathUnits="userSpaceOnUse"
       id="clipPath77">
      <path
         d="M 0,660 H 660 V 0 H 0 Z"
         transform="translate(-533.63872,-200.4238)"
         id="path77" />
    </clipPath>
    <clipPath
       clipPathUnits="userSpaceOnUse"
       id="clipPath79">
      <path
         d="M 0,660 H 660 V 0 H 0 Z"
         transform="translate(-532.56451,-201.77931)"
         id="path79" />
    </clipPath>
    <clipPath
       clipPathUnits="userSpaceOnUse"
       id="clipPath81">
      <path
         d="M 0,660 H 660 V 0 H 0 Z"
         id="path81" />
    </clipPath>
    <clipPath
       clipPathUnits="userSpaceOnUse"
       id="clipPath83">
      <path
         d="M 0,660 H 660 V 0 H 0 Z"
         id="path83" />
    </clipPath>
    <clipPath
       clipPathUnits="userSpaceOnUse"
       id="clipPath85">
      <path
         d="M 0,660 H 660 V 0 H 0 Z"
         id="path85" />
    </clipPath>
    <clipPath
       clipPathUnits="userSpaceOnUse"
       id="clipPath87">
      <path
         d="M 0,660 H 660 V 0 H 0 Z"
         transform="translate(-310.80571,-400.79541)"
         id="path87" />
    </clipPath>
    <clipPath
       clipPathUnits="userSpaceOnUse"
       id="clipPath89">
      <path
         d="M 0,660 H 660 V 0 H 0 Z"
         id="path89" />
    </clipPath>
    <clipPath
       clipPathUnits="userSpaceOnUse"
       id="clipPath91">
      <path
         d="M 0,660 H 660 V 0 H 0 Z"
         id="path91" />
    </clipPath>
    <clipPath
       clipPathUnits="userSpaceOnUse"
       id="clipPath93">
      <path
         d="M 0,660 H 660 V 0 H 0 Z"
         transform="translate(-360.75001,-400.79541)"
         id="path93" />
    </clipPath>
    <clipPath
       clipPathUnits="userSpaceOnUse"
       id="clipPath95">
      <path
         d="M 0,660 H 660 V 0 H 0 Z"
         id="path95" />
    </clipPath>
    <clipPath
       clipPathUnits="userSpaceOnUse"
       id="clipPath97">
      <path
         d="M 0,660 H 660 V 0 H 0 Z"
         id="path97" />
    </clipPath>
    <clipPath
       clipPathUnits="userSpaceOnUse"
       id="clipPath99">
      <path
         d="M 0,660 H 660 V 0 H 0 Z"
         transform="translate(-410.69431,-400.79541)"
         id="path99" />
    </clipPath>
    <clipPath
       clipPathUnits="userSpaceOnUse"
       id="clipPath101">
      <path
         d="M 0,660 H 660 V 0 H 0 Z"
         id="path101" />
    </clipPath>
    <clipPath
       clipPathUnits="userSpaceOnUse"
       id="clipPath103">
      <path
         d="M 0,660 H 660 V 0 H 0 Z"
         id="path103" />
    </clipPath>
    <clipPath
       clipPathUnits="userSpaceOnUse"
       id="clipPath105">
      <path
         d="M 0,660 H 660 V 0 H 0 Z"
         id="path105" />
    </clipPath>
    <clipPath
       clipPathUnits="userSpaceOnUse"
       id="clipPath107">
      <path
         d="M 0,660 H 660 V 0 H 0 Z"
         id="path107" />
    </clipPath>
    <clipPath
       clipPathUnits="userSpaceOnUse"
       id="clipPath109">
      <path
         d="M 0,660 H 660 V 0 H 0 Z"
         id="path109" />
    </clipPath>
    <clipPath
       clipPathUnits="userSpaceOnUse"
       id="clipPath111">
      <path
         d="M 0,660 H 660 V 0 H 0 Z"
         id="path111" />
    </clipPath>
    <clipPath
       clipPathUnits="userSpaceOnUse"
       id="clipPath113">
      <path
         d="M 0,660 H 660 V 0 H 0 Z"
         id="path113" />
    </clipPath>
    <clipPath
       clipPathUnits="userSpaceOnUse"
       id="clipPath115">
      <path
         d="M 0,660 H 660 V 0 H 0 Z"
         id="path115" />
    </clipPath>
  </defs>
  <sodipodi:namedview
     id="namedview1"
     pagecolor="#ffffff"
     bordercolor="#000000"
     borderopacity="0.25"
     inkscape:showpageshadow="2"
     inkscape:pageopacity="0.0"
     inkscape:pagecheckerboard="0"
     inkscape:deskcolor="#d1d1d1"
     inkscape:zoom="0.67272727"
     inkscape:cx="439.25676"
     inkscape:cy="440"
     inkscape:window-width="1440"
     inkscape:window-height="830"
     inkscape:window-x="-6"
     inkscape:window-y="-6"
     inkscape:window-maximized="1"
     inkscape:current-layer="g1">
    <inkscape:page
       x="0"
       y="0"
       inkscape:label="1"
       id="page1"
       width="880"
       height="880"
       margin="164.888 7.8973331 184.55333 5.5142398"
       bleed="0" />
  </sodipodi:namedview>
  <g
     id="g1"
     inkscape:groupmode="layer"
     inkscape:label="1">
    <g
       id="group-MC0">
      <path
         id="path2"
         d="m 0,0 c 26.259,0 47.545,-47.31 47.545,-73.568 0,-26.26 -21.286,-47.545 -47.545,-47.545 -26.258,0 -47.545,21.285 -47.545,47.545 C -47.545,-47.31 -26.258,0 0,0"
         style="fill:#549d34;fill-opacity:1;fill-rule:evenodd;stroke:none"
         transform="matrix(1.3333333,0,0,-1.3333333,738.2136,511.586)"
         clip-path="url(#clipPath3)" />
      <path
         id="path4"
         d="m 0,0 c 11.976,5.867 21.156,-5.662 20.499,-25.754 -0.654,-20.09 -10.895,-41.135 -22.873,-47.004 -11.977,-5.867 -21.155,5.66 -20.501,25.752 C -22.22,-26.914 -11.979,-5.869 0,0"
         style="fill:#6fbc3a;fill-opacity:1;fill-rule:evenodd;stroke:none"
         transform="matrix(1.3333333,0,0,-1.3333333,719.35933,530.64587)"
         clip-path="url(#clipPath5)" />
      <path
         id="path6"
         d="m 0,0 c 26.258,0 47.545,-47.313 47.545,-73.57 0,-26.258 -21.287,-47.545 -47.545,-47.545 -26.259,0 -47.545,21.287 -47.545,47.545 C -47.545,-47.313 -26.259,0 0,0"
         style="fill:#549d34;fill-opacity:1;fill-rule:evenodd;stroke:none"
         transform="matrix(1.3333333,0,0,-1.3333333,93.609333,490.23173)"
         clip-path="url(#clipPath7)" />
      <path
         id="path8"
         d="M 0,0 C 11.977,5.869 21.156,-5.66 20.501,-25.752 19.846,-45.844 9.604,-66.889 -2.373,-72.756 c -11.978,-5.869 -21.156,5.66 -20.501,25.752 C -22.219,-26.912 -11.979,-5.867 0,0"
         style="fill:#6fbc3a;fill-opacity:1;fill-rule:evenodd;stroke:none"
         transform="matrix(1.3333333,0,0,-1.3333333,74.753867,509.29427)"
         clip-path="url(#clipPath9)" />
      <path
         id="path10"
         d="m 0,0 c 178.986,0 324.97,3.822 324.97,8.51 0,4.687 -145.984,8.508 -324.97,8.508 -178.988,0 -324.972,-3.821 -324.972,-8.508 C -324.972,3.822 -178.988,0 0,0"
         style="fill:#9ac421;fill-opacity:1;fill-rule:evenodd;stroke:none"
         transform="matrix(1.3333333,0,0,-1.3333333,438.80987,715.112)"
         clip-path="url(#clipPath11)" />
      <path
         id="path12"
         d="m 0,0 c 26.257,0 47.544,-47.31 47.544,-73.568 0,-26.258 -21.287,-47.545 -47.544,-47.545 -26.259,0 -47.546,21.287 -47.546,47.545 C -47.546,-47.31 -26.259,0 0,0"
         style="fill:#60ad32;fill-opacity:1;fill-rule:evenodd;stroke:none"
         transform="matrix(1.3333333,0,0,-1.3333333,257.63933,251.34307)"
         clip-path="url(#clipPath13)" />
      <path
         id="path14"
         d="M 0,0 C 11.978,5.87 21.155,-5.661 20.501,-25.751 19.846,-45.842 9.606,-66.887 -2.372,-72.755 -14.35,-78.623 -23.528,-67.096 -22.873,-47.003 -22.218,-26.911 -11.977,-5.868 0,0"
         style="fill:#80cb45;fill-opacity:1;fill-rule:evenodd;stroke:none"
         transform="matrix(1.3333333,0,0,-1.3333333,238.78253,270.40427)"
         clip-path="url(#clipPath15)" />
      <path
         id="path16"
         d="m 0,0 c 26.259,0 47.545,-47.31 47.545,-73.568 0,-26.259 -21.286,-47.545 -47.545,-47.545 -26.258,0 -47.544,21.286 -47.544,47.545 C -47.544,-47.31 -26.258,0 0,0"
         style="fill:#549d34;fill-opacity:1;fill-rule:evenodd;stroke:none"
         transform="matrix(1.3333333,0,0,-1.3333333,162.2148,235.32747)"
         clip-path="url(#clipPath17)" />
      <path
         id="path18"
         d="M 0,0 C 11.977,5.868 21.156,-5.659 20.501,-25.751 19.847,-45.844 9.605,-66.887 -2.373,-72.757 c -11.977,-5.868 -21.155,5.661 -20.5,25.753 C -22.219,-26.913 -11.977,-5.868 0,0"
         style="fill:#6fbc3a;fill-opacity:1;fill-rule:evenodd;stroke:none"
         transform="matrix(1.3333333,0,0,-1.3333333,143.35933,254.38867)"
         clip-path="url(#clipPath19)" />
      <path
         id="path20"
         d="m 66.469,312.754 h 141.525 v 74.41 H 66.469 Z"
         style="fill:#f7eeed;fill-opacity:1;fill-rule:evenodd;stroke:none"
         transform="matrix(1.3333333,0,0,-1.3333333,0,880)"
         clip-path="url(#clipPath21)" />
      <path
         id="path22"
         d="M 66.469,133.141 H 216.01 V 305.928 H 66.469 Z"
         style="fill:#e8ddd9;fill-opacity:1;fill-rule:evenodd;stroke:none"
         transform="matrix(1.3333333,0,0,-1.3333333,0,880)"
         clip-path="url(#clipPath23)" />
      <path
         id="path24"
         d="m 92.953,143.721 h 50.971 V 275.153 H 92.953 Z"
         style="fill:#463d3b;fill-opacity:1;fill-rule:evenodd;stroke:none"
         transform="matrix(1.3333333,0,0,-1.3333333,0,880)"
         clip-path="url(#clipPath25)" />
      <path
         id="path26"
         d="m 97.762,148.527 h 41.355 V 270.343 H 97.762 Z"
         style="fill:#6babbe;fill-opacity:1;fill-rule:evenodd;stroke:none"
         transform="matrix(1.3333333,0,0,-1.3333333,0,880)"
         clip-path="url(#clipPath27)" />
      <path
         id="path28"
         d="m 0,0 v -7.375 l 41.354,29.582 v 7.373 z m 0,-17.953 v -19.875 l 41.354,29.582 v 19.875 z m 0,42.957 41.354,29.58 V 38.236 L 0,8.654 Z"
         style="fill:#82bfcd;fill-opacity:1;fill-rule:evenodd;stroke:none"
         transform="matrix(1.3333333,0,0,-1.3333333,130.34893,611.98173)"
         clip-path="url(#clipPath29)" />
      <path
         id="path30"
         d="m 139.115,143.721 h 50.972 v 131.432 h -50.972 z"
         style="fill:#463d3b;fill-opacity:1;fill-rule:evenodd;stroke:none"
         transform="matrix(1.3333333,0,0,-1.3333333,0,880)"
         clip-path="url(#clipPath31)" />
      <path
         id="path32"
         d="m 143.925,148.527 h 41.353 v 121.816 h -41.353 z"
         style="fill:#6babbe;fill-opacity:1;fill-rule:evenodd;stroke:none"
         transform="matrix(1.3333333,0,0,-1.3333333,0,880)"
         clip-path="url(#clipPath33)" />
      <path
         id="path34"
         d="m 0,0 v -7.375 l 41.353,29.582 v 7.373 z m 0,-17.953 v -19.875 l 41.353,29.582 v 19.875 z m 0,42.957 41.353,29.58 V 38.236 L 0,8.654 Z"
         style="fill:#82bfcd;fill-opacity:1;fill-rule:evenodd;stroke:none"
         transform="matrix(1.3333333,0,0,-1.3333333,191.89973,611.98173)"
         clip-path="url(#clipPath35)" />
      <path
         id="path36"
         d="m 86.222,143.721 h 6.731 v 131.432 h -6.731 z"
         style="fill:#b7a8a1;fill-opacity:1;fill-rule:evenodd;stroke:none"
         transform="matrix(1.3333333,0,0,-1.3333333,0,880)"
         clip-path="url(#clipPath37)" />
      <path
         id="path38"
         d="m 52.847,299.156 h 164.872 v 13.502 H 52.847 Z"
         style="fill:#f9f5f5;fill-opacity:1;fill-rule:evenodd;stroke:none"
         transform="matrix(1.3333333,0,0,-1.3333333,0,880)"
         clip-path="url(#clipPath39)" />
      <path
         id="path40"
         d="M 66.469,292.785 H 216.01 v 6.371 H 66.469 Z"
         style="fill:#d7c9c4;fill-opacity:1;fill-rule:evenodd;stroke:none"
         transform="matrix(1.3333333,0,0,-1.3333333,0,880)"
         clip-path="url(#clipPath41)" />
      <path
         id="path42"
         d="M 200.753,133.141 H 410.152 V 320.082 H 200.753 Z"
         style="fill:#d7c9c4;fill-opacity:1;fill-rule:evenodd;stroke:none"
         transform="matrix(1.3333333,0,0,-1.3333333,0,880)"
         clip-path="url(#clipPath43)" />
      <path
         id="path44"
         d="M 231.535,144.586 H 286.68 V 286.787 H 231.535 Z"
         style="fill:#463d3b;fill-opacity:1;fill-rule:evenodd;stroke:none"
         transform="matrix(1.3333333,0,0,-1.3333333,0,880)"
         clip-path="url(#clipPath45)" />
      <path
         id="path46"
         d="m 236.737,149.789 h 44.74 v 131.795 h -44.74 z"
         style="fill:#6babbe;fill-opacity:1;fill-rule:evenodd;stroke:none"
         transform="matrix(1.3333333,0,0,-1.3333333,0,880)"
         clip-path="url(#clipPath47)" />
      <path
         id="path48"
         d="m 0,0 v -7.977 l 44.74,32.004 v 7.977 z M 0,-19.422 V -40.926 L 44.74,-8.92 v 21.5 z M 0,27.053 44.74,59.057 V 41.367 L 0,9.365 Z"
         style="fill:#82bfcd;fill-opacity:1;fill-rule:evenodd;stroke:none"
         transform="matrix(1.3333333,0,0,-1.3333333,315.64973,604.57027)"
         clip-path="url(#clipPath49)" />
      <path
         id="path50"
         d="m 281.477,144.586 h 55.147 v 142.201 h -55.147 z"
         style="fill:#463d3b;fill-opacity:1;fill-rule:evenodd;stroke:none"
         transform="matrix(1.3333333,0,0,-1.3333333,0,880)"
         clip-path="url(#clipPath51)" />
      <path
         id="path52"
         d="m 286.68,149.789 h 44.741 V 281.584 H 286.68 Z"
         style="fill:#6babbe;fill-opacity:1;fill-rule:evenodd;stroke:none"
         transform="matrix(1.3333333,0,0,-1.3333333,0,880)"
         clip-path="url(#clipPath53)" />
      <path
         id="path54"
         d="m 0,0 v -7.977 l 44.739,32.004 v 7.977 z M 0,-19.422 V -40.926 L 44.739,-8.92 v 21.5 z M 0,27.053 44.739,59.057 V 41.367 L 0,9.365 Z"
         style="fill:#82bfcd;fill-opacity:1;fill-rule:evenodd;stroke:none"
         transform="matrix(1.3333333,0,0,-1.3333333,382.24213,604.57027)"
         clip-path="url(#clipPath55)" />
      <path
         id="path56"
         d="m 331.421,144.586 h 55.145 v 142.201 h -55.145 z"
         style="fill:#463d3b;fill-opacity:1;fill-rule:evenodd;stroke:none"
         transform="matrix(1.3333333,0,0,-1.3333333,0,880)"
         clip-path="url(#clipPath57)" />
      <path
         id="path58"
         d="m 336.624,149.789 h 44.741 v 131.795 h -44.741 z"
         style="fill:#6babbe;fill-opacity:1;fill-rule:evenodd;stroke:none"
         transform="matrix(1.3333333,0,0,-1.3333333,0,880)"
         clip-path="url(#clipPath59)" />
      <path
         id="path60"
         d="m 0,0 v -7.977 l 44.741,32.004 v 7.977 z M 0,-19.422 V -40.926 L 44.741,-8.92 v 21.5 z M 0,27.053 44.741,59.057 V 41.367 L 0,9.365 Z"
         style="fill:#82bfcd;fill-opacity:1;fill-rule:evenodd;stroke:none"
         transform="matrix(1.3333333,0,0,-1.3333333,448.832,604.57027)"
         clip-path="url(#clipPath61)" />
      <path
         id="path62"
         d="m 224.251,144.586 h 7.284 v 142.201 h -7.284 z"
         style="fill:#b7a8a1;fill-opacity:1;fill-rule:evenodd;stroke:none"
         transform="matrix(1.3333333,0,0,-1.3333333,0,880)"
         clip-path="url(#clipPath63)" />
      <path
         id="path64"
         d="M 410.151,133.141 H 572.898 V 320.082 H 410.151 Z"
         style="fill:#7a6e6b;fill-opacity:1;fill-rule:evenodd;stroke:none"
         transform="matrix(1.3333333,0,0,-1.3333333,0,880)"
         clip-path="url(#clipPath65)" />
      <path
         id="path66"
         d="m 412.543,312.756 h 179.432 v 14.607 H 412.543 Z"
         style="fill:#b3a7a3;fill-opacity:1;fill-rule:evenodd;stroke:none"
         transform="matrix(1.3333333,0,0,-1.3333333,0,880)"
         clip-path="url(#clipPath67)" />
      <path
         id="path68"
         d="m 200.753,305.861 h 209.399 v 6.895 H 200.753 Z"
         style="fill:#cbbcb6;fill-opacity:1;fill-rule:evenodd;stroke:none"
         transform="matrix(1.3333333,0,0,-1.3333333,0,880)"
         clip-path="url(#clipPath69)" />
      <path
         id="path70"
         d="m 410.151,305.861 h 162.747 v 6.895 H 410.151 Z"
         style="fill:#6e6461;fill-opacity:1;fill-rule:evenodd;stroke:none"
         transform="matrix(1.3333333,0,0,-1.3333333,0,880)"
         clip-path="url(#clipPath71)" />
      <path
         id="path72"
         d="m 541.859,133.141 h 5.203 V 278.2 h -5.203 z"
         style="fill:#b3a7a3;fill-opacity:1;fill-rule:evenodd;stroke:none"
         transform="matrix(1.3333333,0,0,-1.3333333,0,880)"
         clip-path="url(#clipPath73)" />
      <path
         id="path74"
         d="m 491.569,133.141 h 50.29 V 278.2 h -50.29 z"
         style="fill:#463d3b;fill-opacity:1;fill-rule:evenodd;stroke:none"
         transform="matrix(1.3333333,0,0,-1.3333333,0,880)"
         clip-path="url(#clipPath75)" />
      <path
         id="path76"
         d="m 0,0 c 2.225,0 4.038,2.754 4.038,6.129 0,3.377 -1.813,6.129 -4.038,6.129 -2.226,0 -4.039,-2.752 -4.039,-6.129 C -4.039,2.754 -2.226,0 0,0"
         style="fill:#3a3230;fill-opacity:1;fill-rule:evenodd;stroke:none"
         transform="matrix(1.3333333,0,0,-1.3333333,711.51827,612.76827)"
         clip-path="url(#clipPath77)" />
      <path
         id="path78"
         d="m 0,0 c 2.226,0 4.041,2.754 4.041,6.129 0,3.377 -1.815,6.129 -4.041,6.129 -2.225,0 -4.038,-2.752 -4.038,-6.129 C -4.038,2.754 -2.225,0 0,0"
         style="fill:#b3a7a3;fill-opacity:1;fill-rule:evenodd;stroke:none"
         transform="matrix(1.3333333,0,0,-1.3333333,710.086,610.96093)"
         clip-path="url(#clipPath79)" />
      <path
         id="path80"
         d="M 274.821,327.363 H 484.22 v 186.94 H 274.821 Z"
         style="fill:#d7c9c4;fill-opacity:1;fill-rule:evenodd;stroke:none"
         transform="matrix(1.3333333,0,0,-1.3333333,0,880)"
         clip-path="url(#clipPath81)" />
      <path
         id="path82"
         d="M 305.603,338.808 H 360.75 V 481.007 H 305.603 Z"
         style="fill:#463d3b;fill-opacity:1;fill-rule:evenodd;stroke:none"
         transform="matrix(1.3333333,0,0,-1.3333333,0,880)"
         clip-path="url(#clipPath83)" />
      <path
         id="path84"
         d="m 310.806,344.01 h 44.74 v 131.795 h -44.74 z"
         style="fill:#6babbe;fill-opacity:1;fill-rule:evenodd;stroke:none"
         transform="matrix(1.3333333,0,0,-1.3333333,0,880)"
         clip-path="url(#clipPath85)" />
      <path
         id="path86"
         d="m 0,0 v -7.978 l 44.74,32.004 v 7.976 z M 0,-19.423 V -40.928 L 44.74,-8.923 V 12.58 Z M 0,27.052 44.74,59.056 V 41.366 L 0,9.364 Z"
         style="fill:#82bfcd;fill-opacity:1;fill-rule:evenodd;stroke:none"
         transform="matrix(1.3333333,0,0,-1.3333333,414.4076,345.60613)"
         clip-path="url(#clipPath87)" />
      <path
         id="path88"
         d="m 355.546,338.808 h 55.146 v 142.199 h -55.146 z"
         style="fill:#463d3b;fill-opacity:1;fill-rule:evenodd;stroke:none"
         transform="matrix(1.3333333,0,0,-1.3333333,0,880)"
         clip-path="url(#clipPath89)" />
      <path
         id="path90"
         d="m 360.75,344.01 h 44.74 v 131.795 h -44.74 z"
         style="fill:#6babbe;fill-opacity:1;fill-rule:evenodd;stroke:none"
         transform="matrix(1.3333333,0,0,-1.3333333,0,880)"
         clip-path="url(#clipPath91)" />
      <path
         id="path92"
         d="m 0,0 v -7.978 l 44.74,32.004 v 7.976 z M 0,-19.423 V -40.928 L 44.74,-8.923 V 12.58 Z M 0,27.052 44.74,59.056 V 41.366 L 0,9.364 Z"
         style="fill:#82bfcd;fill-opacity:1;fill-rule:evenodd;stroke:none"
         transform="matrix(1.3333333,0,0,-1.3333333,481,345.60613)"
         clip-path="url(#clipPath93)" />
      <path
         id="path94"
         d="m 405.49,338.808 h 55.147 V 481.007 H 405.49 Z"
         style="fill:#463d3b;fill-opacity:1;fill-rule:evenodd;stroke:none"
         transform="matrix(1.3333333,0,0,-1.3333333,0,880)"
         clip-path="url(#clipPath95)" />
      <path
         id="path96"
         d="m 410.694,344.01 h 44.741 v 131.795 h -44.741 z"
         style="fill:#6babbe;fill-opacity:1;fill-rule:evenodd;stroke:none"
         transform="matrix(1.3333333,0,0,-1.3333333,0,880)"
         clip-path="url(#clipPath97)" />
      <path
         id="path98"
         d="m 0,0 v -7.978 l 44.741,32.004 v 7.976 z M 0,-19.423 V -40.928 L 44.741,-8.923 V 12.58 Z M 0,27.052 44.741,59.056 V 41.366 L 0,9.364 Z"
         style="fill:#82bfcd;fill-opacity:1;fill-rule:evenodd;stroke:none"
         transform="matrix(1.3333333,0,0,-1.3333333,547.5924,345.60613)"
         clip-path="url(#clipPath99)" />
      <path
         id="path100"
         d="m 484.222,327.363 h 88.677 v 186.94 h -88.677 z"
         style="fill:#7a6e6b;fill-opacity:1;fill-rule:evenodd;stroke:none"
         transform="matrix(1.3333333,0,0,-1.3333333,0,880)"
         clip-path="url(#clipPath101)" />
      <path
         id="path102"
         d="m 485.639,506.975 h 106.336 v 14.61 H 485.639 Z"
         style="fill:#b3a7a3;fill-opacity:1;fill-rule:evenodd;stroke:none"
         transform="matrix(1.3333333,0,0,-1.3333333,0,880)"
         clip-path="url(#clipPath103)" />
      <path
         id="path104"
         d="m 484.222,500.082 h 88.677 v 6.895 h -88.677 z"
         style="fill:#6e6461;fill-opacity:1;fill-rule:evenodd;stroke:none"
         transform="matrix(1.3333333,0,0,-1.3333333,0,880)"
         clip-path="url(#clipPath105)" />
      <path
         id="path106"
         d="m 298.319,338.808 h 7.284 v 142.199 h -7.284 z"
         style="fill:#b7a8a1;fill-opacity:1;fill-rule:evenodd;stroke:none"
         transform="matrix(1.3333333,0,0,-1.3333333,0,880)"
         clip-path="url(#clipPath107)" />
      <path
         id="path108"
         d="m 255.747,506.975 h 230.864 v 14.61 H 255.747 Z"
         style="fill:#efe6e5;fill-opacity:1;fill-rule:evenodd;stroke:none"
         transform="matrix(1.3333333,0,0,-1.3333333,0,880)"
         clip-path="url(#clipPath109)" />
      <path
         id="path110"
         d="M 274.821,500.082 H 484.22 v 6.895 H 274.821 Z"
         style="fill:#cbbcb6;fill-opacity:1;fill-rule:evenodd;stroke:none"
         transform="matrix(1.3333333,0,0,-1.3333333,0,880)"
         clip-path="url(#clipPath111)" />
      <path
         id="path112"
         d="m 181.677,312.754 h 230.866 v 92.928 H 181.677 Z"
         style="fill:#efe6e5;fill-opacity:1;fill-rule:evenodd;stroke:none"
         transform="matrix(1.3333333,0,0,-1.3333333,0,880)"
         clip-path="url(#clipPath113)" />
      <path
         id="path114"
         d="m 412.543,320.082 h 71.678 v 85.6 h -71.678 z"
         style="fill:#b3a7a3;fill-opacity:1;fill-rule:evenodd;stroke:none"
         transform="matrix(1.3333333,0,0,-1.3333333,0,880)"
         clip-path="url(#clipPath115)" />
    </g>
  </g>
</svg>
